<svg width="58" height="58" viewBox="0 0 58 58" fill="none" xmlns="http://www.w3.org/2000/svg">
<path d="M19.3806 22.8829C26.9357 19.2698 32.8485 13.1385 36.2428 5.47437C34.0529 3.17514 31.2061 1.53282 28.1402 0.547437L26.4978 0C26.3883 0.218975 26.2788 0.547451 26.2788 0.766425C23.6509 8.21157 18.2857 14.2334 11.059 17.6275C6.02223 20.0362 2.29939 24.4157 0.547475 29.6711L0 31.3134C0.21899 31.4229 0.54748 31.5324 0.766469 31.5324C2.84687 32.2988 4.92728 33.2842 6.89818 34.4885C9.63556 29.5616 14.0153 25.4011 19.3806 22.8829Z" fill="#201B21"/>
<path d="M51.1332 23.3223C47.0819 29.4536 41.4977 34.3805 34.5995 37.6651C29.0153 40.2928 24.7449 45.2198 22.774 51.1321L22.2266 52.9934C24.307 54.8547 26.8253 56.278 29.5627 57.1539L31.2051 57.7014C31.3146 57.4824 31.4241 57.1539 31.4241 56.9349C34.052 49.4898 39.4173 43.468 46.6439 40.0739C51.6807 37.6651 55.513 33.2856 57.1554 28.0302L57.7029 26.3879C55.4035 25.731 53.2136 24.6361 51.1332 23.3223Z" fill="#201B21"/>
<path d="M17.8466 47.2958C20.5839 40.7266 25.6207 35.3617 32.0809 32.296C37.9936 29.4493 42.9209 25.0698 46.3152 19.705C43.7969 17.2962 41.7164 14.559 40.1835 11.2744C36.1322 18.7196 29.7815 24.7414 22.0074 28.464C17.5181 30.5442 13.9047 34.1573 11.7148 38.5368C14.1237 40.8361 16.0946 43.6827 17.6276 46.8578C17.6276 46.8578 17.7371 47.0768 17.8466 47.2958Z" fill="#201B21"/>
</svg>
